<?xml version="1.0" ?><svg data-name="Layer 1" id="Layer_1" viewBox="0 0 512 512" xmlns="http://www.w3.org/2000/svg">
<defs>
    <linearGradient id="grad1" x1="0%" y1="0%" x2="100%" y2="0%">
      <stop offset="0%" style="stop-color:rgb(51, 204, 255);stop-opacity:1" />
      <stop offset="100%" style="stop-color:rgb(0,0,255);stop-opacity:1" />
    </linearGradient>
  </defs>
  <path d="M360.7,387.8V336.67c8.89-11.87,65.71-92.65,33.35-177.26C377.56,116.29,347.71,84.89,310,71,271.67,56.93,227.84,61.6,186.54,84.2c-77.62,42.47-62.22,119.93-59.38,131.58l-18.48,63.35a14.86,14.86,0,0,0,14.26,19h22.19l9.15,35.25a39,39,0,0,0,46.85,27.92l48.47-11.95,2.11,55.75L232,441.7a4.92,4.92,0,1,0,8.67,4.67L261,408.59a4.92,4.92,0,0,0,.59-2.53l-2.24-59.12,24.92-6.14A35.11,35.11,0,0,0,311,307l.11-13.79a4.93,4.93,0,0,0-4.89-5h0a4.93,4.93,0,0,0-4.93,4.89l-.12,13.78a25.23,25.23,0,0,1-19.18,24.29l-28.7,7.07-.23.05-54.24,13.37a29.05,29.05,0,0,1-34.94-20.83l-3.18-12.24h26.73a4.93,4.93,0,0,0,0-9.86H158.09L153.71,292a4.93,4.93,0,0,0-4.77-3.68h-26a5,5,0,0,1-4.79-6.38L137,217.24a5,5,0,0,0,0-2.78c-.21-.71-18.38-65.11,34.71-108.51,2.4,22.81,12.11,80.92,49.36,92.9,9.22,3,19.14,5.15,28.73,7.27,35.55,7.84,72.3,15.95,87.78,65.24,13.28,42.32,13.27,63.38,13.27,63.59v54.34a4.91,4.91,0,0,0,.82,2.73l36.42,54.75a4.94,4.94,0,0,0,8.22-5.47Zm22.42-226.63a9.58,9.58,0,1,1-9.58-9.57A9.59,9.59,0,0,1,383.12,161.17ZM347,268.41c-6.75-21.51-17.24-36-29.71-46.1h28a19.43,19.43,0,1,0,0-9.86h-43c-15.93-8.37-33.61-12.28-50.28-16-9.81-2.16-19.06-4.21-27.83-7-17-5.45-27.35-23.54-33.67-42.35h35.69a4.94,4.94,0,0,0,3.49-1.44l30.57-30.58h28.69a19.43,19.43,0,1,0,0-9.86H258.13a4.94,4.94,0,0,0-3.49,1.44l-30.57,30.59H187.46A224.22,224.22,0,0,1,181,99.07c3.21-2.15,6.62-4.23,10.26-6.22C230,71.64,271,67.16,306.59,80.27c28.58,10.51,52.34,32,68.51,61.54-.51,0-1-.07-1.56-.07a19.46,19.46,0,0,0-18.79,14.5H299.13a19.43,19.43,0,1,0,0,9.86h55.62a19.42,19.42,0,0,0,33.67,7.56c18.13,62.69-13.63,123.1-29,147.26C357.94,310,354.54,292.55,347,268.41Zm7.49-51A9.57,9.57,0,1,1,364,227,9.59,9.59,0,0,1,354.45,217.38ZM298.08,110.16a9.58,9.58,0,1,1,9.57,9.57A9.58,9.58,0,0,1,298.08,110.16Zm-8.17,51a9.58,9.58,0,1,1-9.58-9.57A9.59,9.59,0,0,1,289.91,161.17Z" fill="url(#grad1)"/><path d="M164.4,210.93a4.93,4.93,0,0,0,0,9.86h23a4.93,4.93,0,0,0,0-9.86Z" fill="url(#grad1)"/></svg>