<svg width="100.4" height="100.4" xmlns="http://www.w3.org/2000/svg">

 <g>
  <title>background</title>
  <rect fill="none" id="canvas_background" height="402" width="582" y="-1" x="-1"/>
 </g>
 <g>
  <title>Layer 1</title>
  <defs>
    <linearGradient id="grad1" x1="0%" y1="0%" x2="100%" y2="0%">
      <stop offset="0%" style="stop-color:rgb(255,255,0);stop-opacity:1" />
      <stop offset="100%" style="stop-color:rgb(255,0,0);stop-opacity:1" />
    </linearGradient>
  </defs>
  <path id="svg_2" d="m20.4,19.3l11.6,5.1c-2.3,3.4 -3.5,7.3 -3.5,11.4c0,11.2 9.1,20.4 20.4,20.4s20.4,-9.1 20.4,-20.4c0,-4 -1.2,-8 -3.4,-11.3l10.2,-4.8l0,19.4l-3.1,6.6c-0.2,0.5 -0.2,1 0.1,1.4s0.8,0.7 1.3,0.7l5.9,0c0.5,0 1,-0.2 1.2,-0.7c0.3,-0.4 0.3,-0.9 0.1,-1.4l-2.7,-6.6l0,-20.7c0,-0.8 -0.1,-1.4 -1.5,-2c-0.3,-0.1 -27.8,-12.3 -27.8,-12.3c-0.4,-0.2 -0.8,-0.2 -1.2,0l-28,12.4c-0.5,0.2 -0.9,0.8 -0.9,1.4s0.3,1.1 0.9,1.4zm45.8,16.5c0,9.6 -7.8,17.4 -17.4,17.4s-17.4,-7.8 -17.4,-17.4c0,-3.7 1.2,-7.2 3.3,-10.2l13.6,6.1c0.2,0.1 0.4,0.1 0.6,0.1s0.4,0 0.6,-0.1l13.4,-6c2.2,3 3.3,6.5 3.3,10.1zm10.5,9l0.7,-1.5l0.6,1.5l-1.3,0zm-27.7,-37.7l24.3,10.8l-24.3,10.8l-24.3,-10.8l24.3,-10.8z" fill="url(#grad1)"/>
  <path id="svg_3" d="m49.4,59.8c-19.5,0 -35.4,15.9 -35.4,35.4c0,0.8 0.7,1.5 1.5,1.5l67.8,0c0.8,0 1.5,-0.7 1.5,-1.5c0,-19.5 -15.9,-35.4 -35.4,-35.4zm-32.3,33.9c0.8,-17.2 15,-30.9 32.4,-30.9s31.5,13.8 32.3,30.9l-64.7,0z" fill="url(#grad1)"/>
 </g>
</svg>