<svg width="64" height="64" xmlns="http://www.w3.org/2000/svg">

 <title/>
 <g>
  <title>background</title>
  <rect fill="none" id="canvas_background" height="402" width="582" y="-1" x="-1"/>
 </g>
 <g>
  <title>Layer 1</title>
   <defs>
    <linearGradient id="grad1" x1="0%" y1="0%" x2="100%" y2="0%">
      <stop offset="0%" style="stop-color:rgb(0,0,255);stop-opacity:1" />
      <stop offset="100%" style="stop-color:rgb(0,255,0);stop-opacity:1" />
    </linearGradient>
  </defs>
  <path stroke-width="2px" stroke-linejoin="round" stroke-linecap="round" stroke="url(#grad1)" fill="none" id="svg_1" d="m54.57,40.19a24,24 0 0 1 -45.19,-0.19" class="cls-1"/>
  <path stroke-width="2px" stroke-linejoin="round" stroke-linecap="round" stroke="url(#grad1)" fill="none" id="svg_2" d="m9.43,23.78a24,24 0 0 1 45.23,0.22" class="cls-1"/>
  <path stroke-width="2px" stroke-linejoin="round" stroke-linecap="round" stroke="#078cd6" fill="none" id="svg_3" d="m42.32,40.33c-1.55,9.15 -5.59,15.67 -10.32,15.67s-8.82,-6.61 -10.35,-15.86" class="cls-1"/>
  <path stroke-width="2px" stroke-linejoin="round" stroke-linecap="round" stroke="#078cd6" fill="none" id="svg_4" d="m21.6,24c1.49,-9.4 5.58,-16 10.4,-16s8.85,6.66 10.37,16" class="cls-1"/>
  <rect stroke-width="2px" stroke-linejoin="round" stroke-linecap="round" stroke="url(#grad1)" fill="none" id="svg_5" y="24" x="4" width="56" ry="2" rx="2" height="16" class="cls-1"/>
  <polyline stroke-width="2px" stroke-linejoin="round" stroke-linecap="round" stroke="#078cd6" fill="none" id="svg_6" points="27.07 29.64 29.53 35.19 32 30.8 34.47 35.19 36.93 29.64" class="cls-1"/>
  <polyline stroke-width="2px" stroke-linejoin="round" stroke-linecap="round" stroke="#078cd6" fill="none" id="svg_7" points="13.07 29.64 15.53 35.19 18 30.8 20.47 35.19 22.93 29.64" class="cls-1"/>
  <polyline stroke-width="2px" stroke-linejoin="round" stroke-linecap="round" stroke="#078cd6" fill="none" id="svg_8" points="41.07 29.64 43.53 35.19 46 30.8 48.47 35.19 50.93 29.64" class="cls-1"/>
 </g>
</svg>